<svg version="1.1" id="Layer_1" xmlns="http://www.w3.org/2000/svg" xmlns:xlink="http://www.w3.org/1999/xlink" x="0px" y="0px"
	 width="100%" viewBox="0 0 500 500" enable-background="new 0 0 500 500" xml:space="preserve">
<path fill="#000000" opacity="1.000000" stroke="none" 
	d="
M294.000000,501.000000 
	C196.000031,501.000000 98.500046,501.000000 1.000052,501.000000 
	C1.000035,334.333405 1.000035,167.666794 1.000017,1.000142 
	C167.666565,1.000095 334.333130,1.000095 500.999756,1.000047 
	C500.999847,167.666519 500.999847,334.333038 500.999939,500.999786 
	C432.166656,501.000000 363.333344,501.000000 294.000000,501.000000 
M108.621475,49.011074 
	C106.549217,49.430458 104.421440,49.671497 102.413277,50.296741 
	C81.634277,56.766308 65.898300,69.381683 56.042938,88.922356 
	C48.688156,103.505013 46.205555,119.368958 46.133976,135.366119 
	C45.821571,205.184692 46.000156,275.005463 46.001408,344.825409 
	C46.001709,361.625702 46.175701,378.342743 49.877197,394.934814 
	C54.737049,416.719269 67.142403,432.701385 85.898254,443.886597 
	C101.944954,453.456146 120.168976,455.689362 138.249771,455.809692 
	C207.900024,456.273254 277.555450,456.094330 347.208282,455.908508 
	C359.563232,455.875549 371.937775,454.942474 384.261780,453.923431 
	C395.991699,452.953522 407.223846,449.899231 417.497253,443.862061 
	C433.645752,434.372314 444.909210,420.897583 451.034851,403.142975 
	C455.801910,389.326141 456.779327,374.874817 456.844727,360.555298 
	C457.178162,287.570801 457.179840,214.583038 456.818634,141.598801 
	C456.759064,129.566040 455.326691,117.326347 452.768402,105.565208 
	C447.809662,82.768799 434.396149,65.697891 413.450409,55.284847 
	C398.866028,48.034306 382.702972,46.255905 366.768066,46.173672 
	C291.451141,45.785011 216.131088,45.974979 140.812256,46.045536 
	C133.884384,46.052029 126.944229,46.513798 120.034828,47.073406 
	C116.492134,47.360336 113.004860,48.331482 108.621475,49.011074 
z"/>
<path fill="#FF7778" opacity="1.000000" stroke="none" 
	d="
M109.057007,49.002243 
	C113.004860,48.331482 116.492134,47.360336 120.034828,47.073406 
	C126.944229,46.513798 133.884384,46.052029 140.812256,46.045536 
	C216.131088,45.974979 291.451141,45.785011 366.768066,46.173672 
	C382.702972,46.255905 398.866028,48.034306 413.450409,55.284847 
	C434.396149,65.697891 447.809662,82.768799 452.768402,105.565208 
	C455.326691,117.326347 456.759064,129.566040 456.818634,141.598801 
	C457.179840,214.583038 457.178162,287.570801 456.844727,360.555298 
	C456.779327,374.874817 455.801910,389.326141 451.034851,403.142975 
	C444.909210,420.897583 433.645752,434.372314 417.497253,443.862061 
	C407.223846,449.899231 395.991699,452.953522 384.261780,453.923431 
	C371.937775,454.942474 359.563232,455.875549 347.208282,455.908508 
	C277.555450,456.094330 207.900024,456.273254 138.249771,455.809692 
	C120.168976,455.689362 101.944954,453.456146 85.898254,443.886597 
	C67.142403,432.701385 54.737049,416.719269 49.877197,394.934814 
	C46.175701,378.342743 46.001709,361.625702 46.001408,344.825409 
	C46.000156,275.005463 45.821571,205.184692 46.133976,135.366119 
	C46.205555,119.368958 48.688156,103.505013 56.042938,88.922356 
	C65.898300,69.381683 81.634277,56.766308 102.413277,50.296741 
	C104.421440,49.671497 106.549217,49.430458 109.057007,49.002243 
M347.671448,107.187347 
	C315.863922,161.976181 284.864716,217.241364 251.634766,272.370789 
	C249.318283,269.025452 247.683029,266.948181 246.348190,264.693054 
	C229.634140,236.455856 212.949142,208.201401 196.286224,179.933975 
	C181.652863,155.109543 167.293625,130.119431 152.349747,105.483719 
	C144.193268,92.037407 130.418396,92.532173 123.129303,106.564484 
	C120.414627,111.790512 118.788887,118.348282 119.012428,124.209320 
	C120.394012,160.433533 132.859085,192.795715 154.967545,221.414108 
	C167.810745,238.039047 184.429657,250.293213 202.479065,260.626648 
	C214.557663,267.541748 224.054672,277.281403 233.317917,287.341125 
	C234.206833,288.306488 234.961945,290.699860 234.417938,291.475372 
	C229.690109,298.214844 224.651077,304.736053 219.618607,311.436646 
	C217.369049,309.761017 215.799332,308.534149 214.172028,307.389191 
	C204.713470,300.734131 194.382416,296.281586 182.688995,295.984741 
	C151.713638,295.198334 126.424286,321.292877 126.883171,353.372162 
	C127.192101,374.968719 141.398148,393.996490 162.149353,400.608246 
	C182.140717,406.977936 204.844147,399.621399 217.462082,382.677429 
	C223.553329,374.497803 226.834976,365.153534 229.133896,355.320404 
	C230.796967,348.206940 232.499634,341.037598 235.036484,334.209686 
	C238.363266,325.255585 244.710495,318.247650 251.053696,311.191498 
	C261.765747,321.617554 268.078949,333.442780 270.938263,347.222626 
	C273.208344,358.162750 275.928528,368.951508 281.877899,378.666199 
	C300.736938,409.461060 345.289520,411.183502 365.818573,381.846558 
	C380.707855,360.569122 377.563263,330.645386 358.460480,311.827271 
	C339.263428,292.916290 310.484680,290.616364 288.992523,306.287323 
	C286.769348,307.908325 284.594788,309.596039 282.193268,311.406891 
	C277.605133,305.192352 273.563995,299.274506 269.034302,293.757812 
	C266.508392,290.681488 267.315582,288.933197 269.626312,286.251770 
	C281.453888,272.526733 296.486725,263.104279 311.516693,253.406067 
	C355.014008,225.339066 376.559448,183.843582 382.842896,133.529175 
	C383.938293,124.757973 383.746124,115.888100 380.064056,107.479477 
	C376.290710,98.862473 369.793854,94.828064 361.163635,96.039055 
	C354.734955,96.941116 351.032959,101.330940 347.671448,107.187347 
z"/>
<path fill="#FFFEFE" opacity="1.000000" stroke="none" 
	d="
M347.848572,106.869041 
	C351.032959,101.330940 354.734955,96.941116 361.163635,96.039055 
	C369.793854,94.828064 376.290710,98.862473 380.064056,107.479477 
	C383.746124,115.888100 383.938293,124.757973 382.842896,133.529175 
	C376.559448,183.843582 355.014008,225.339066 311.516693,253.406067 
	C296.486725,263.104279 281.453888,272.526733 269.626312,286.251770 
	C267.315582,288.933197 266.508392,290.681488 269.034302,293.757812 
	C273.563995,299.274506 277.605133,305.192352 282.193268,311.406891 
	C284.594788,309.596039 286.769348,307.908325 288.992523,306.287323 
	C310.484680,290.616364 339.263428,292.916290 358.460480,311.827271 
	C377.563263,330.645386 380.707855,360.569122 365.818573,381.846558 
	C345.289520,411.183502 300.736938,409.461060 281.877899,378.666199 
	C275.928528,368.951508 273.208344,358.162750 270.938263,347.222626 
	C268.078949,333.442780 261.765747,321.617554 251.053696,311.191498 
	C244.710495,318.247650 238.363266,325.255585 235.036484,334.209686 
	C232.499634,341.037598 230.796967,348.206940 229.133896,355.320404 
	C226.834976,365.153534 223.553329,374.497803 217.462082,382.677429 
	C204.844147,399.621399 182.140717,406.977936 162.149353,400.608246 
	C141.398148,393.996490 127.192101,374.968719 126.883171,353.372162 
	C126.424286,321.292877 151.713638,295.198334 182.688995,295.984741 
	C194.382416,296.281586 204.713470,300.734131 214.172028,307.389191 
	C215.799332,308.534149 217.369049,309.761017 219.618607,311.436646 
	C224.651077,304.736053 229.690109,298.214844 234.417938,291.475372 
	C234.961945,290.699860 234.206833,288.306488 233.317917,287.341125 
	C224.054672,277.281403 214.557663,267.541748 202.479065,260.626648 
	C184.429657,250.293213 167.810745,238.039047 154.967545,221.414108 
	C132.859085,192.795715 120.394012,160.433533 119.012428,124.209320 
	C118.788887,118.348282 120.414627,111.790512 123.129303,106.564484 
	C130.418396,92.532173 144.193268,92.037407 152.349747,105.483719 
	C167.293625,130.119431 181.652863,155.109543 196.286224,179.933975 
	C212.949142,208.201401 229.634140,236.455856 246.348190,264.693054 
	C247.683029,266.948181 249.318283,269.025452 251.634766,272.370789 
	C284.864716,217.241364 315.863922,161.976181 347.848572,106.869041 
M294.264618,351.029602 
	C296.425842,356.576233 297.794708,362.622986 300.913910,367.565033 
	C307.331360,377.732788 317.200623,382.331207 329.157623,380.510254 
	C341.340149,378.654968 349.249115,371.213318 352.412109,359.283691 
	C355.849030,346.320831 349.300171,330.467041 337.848602,323.037415 
	C326.360046,315.583832 310.510162,316.464325 299.443054,325.016449 
	C295.038269,328.420319 292.476685,332.525421 293.056091,338.264954 
	C293.456787,342.234253 293.775848,346.211823 294.264618,351.029602 
M186.090439,318.065643 
	C165.197800,316.932220 149.622299,330.693634 148.899216,350.925140 
	C148.419449,364.349335 156.247681,375.793701 168.519363,379.608490 
	C181.012726,383.492249 194.081848,379.001648 200.915100,367.337036 
	C204.295441,361.566681 206.616013,354.896240 208.075897,348.334839 
	C211.806290,331.568665 209.686264,325.969086 190.864487,319.016083 
	C189.628555,318.559509 188.275879,318.419067 186.090439,318.065643 
M150.717896,164.213959 
	C154.924667,189.822266 167.684296,210.123306 187.457794,226.072052 
	C187.997406,225.742264 188.537018,225.412476 189.076630,225.082687 
	C176.420517,203.326019 163.764420,181.569366 151.108307,159.812698 
	C150.814957,159.939743 150.521606,160.066788 150.228271,160.193832 
	C150.342422,161.288147 150.456573,162.382477 150.717896,164.213959 
M318.458862,215.897385 
	C317.075775,218.288544 315.692688,220.679718 313.917694,223.748428 
	C330.426086,214.291412 350.560669,178.105804 348.167999,162.865845 
	C338.325531,180.446625 328.578125,197.857590 318.458862,215.897385 
z"/>
<path fill="#FF7979" opacity="1.000000" stroke="none" 
	d="
M294.197998,350.607666 
	C293.775848,346.211823 293.456787,342.234253 293.056091,338.264954 
	C292.476685,332.525421 295.038269,328.420319 299.443054,325.016449 
	C310.510162,316.464325 326.360046,315.583832 337.848602,323.037415 
	C349.300171,330.467041 355.849030,346.320831 352.412109,359.283691 
	C349.249115,371.213318 341.340149,378.654968 329.157623,380.510254 
	C317.200623,382.331207 307.331360,377.732788 300.913910,367.565033 
	C297.794708,362.622986 296.425842,356.576233 294.197998,350.607666 
z"/>
<path fill="#FF7979" opacity="1.000000" stroke="none" 
	d="
M186.533966,318.098633 
	C188.275879,318.419067 189.628555,318.559509 190.864487,319.016083 
	C209.686264,325.969086 211.806290,331.568665 208.075897,348.334839 
	C206.616013,354.896240 204.295441,361.566681 200.915100,367.337036 
	C194.081848,379.001648 181.012726,383.492249 168.519363,379.608490 
	C156.247681,375.793701 148.419449,364.349335 148.899216,350.925140 
	C149.622299,330.693634 165.197800,316.932220 186.533966,318.098633 
z"/>
<path fill="#FF7F7E" opacity="1.000000" stroke="none" 
	d="
M150.644318,163.845367 
	C150.456573,162.382477 150.342422,161.288147 150.228271,160.193832 
	C150.521606,160.066788 150.814957,159.939743 151.108307,159.812698 
	C163.764420,181.569366 176.420517,203.326019 189.076630,225.082687 
	C188.537018,225.412476 187.997406,225.742264 187.457794,226.072052 
	C167.684296,210.123306 154.924667,189.822266 150.644318,163.845367 
z"/>
<path fill="#FF807F" opacity="1.000000" stroke="none" 
	d="
M318.644775,215.582977 
	C328.578125,197.857590 338.325531,180.446625 348.167999,162.865845 
	C350.560669,178.105804 330.426086,214.291412 313.917694,223.748428 
	C315.692688,220.679718 317.075775,218.288544 318.644775,215.582977 
z"/>
</svg>